<svg xmlns="http://www.w3.org/2000/svg" viewBox="0 0 512 512">
  <defs>
    <radialGradient id="bg" cx="35%" cy="25%" r="85%">
      <stop offset="0" stop-color="#2b1d20"/>
      <stop offset="1" stop-color="#0b0809"/>
    </radialGradient>
    <linearGradient id="gold" x1="0" y1="0" x2="1" y2="1">
      <stop offset="0" stop-color="#b8925a"/>
      <stop offset=".4" stop-color="#f8ecd0"/>
      <stop offset=".6" stop-color="#e6c98f"/>
      <stop offset="1" stop-color="#a87f45"/>
    </linearGradient>
  </defs>
  <rect width="512" height="512" rx="112" fill="url(#bg)"/>
  <circle cx="256" cy="256" r="190" fill="none" stroke="url(#gold)" stroke-opacity=".35" stroke-width="3"/>
  <path d="M256 384s-118-72-146-150c-19-55 16-108 71-108 31 0 56 17 75 44 19-27 44-44 75-44 55 0 90 53 71 108-28 78-146 150-146 150Z" fill="none" stroke="url(#gold)" stroke-width="14" stroke-linejoin="round"/>
  <path d="M256 196c4 28 17 41 45 45-28 4-41 17-45 45-4-28-17-41-45-45 28-4 41-17 45-45Z" fill="url(#gold)"/>
</svg>
